<svg xmlns="http://www.w3.org/2000/svg" fill="#FFF" viewBox="0 0 512 512">
  <path d="m92.648438 292.96875h-27.640626v15h27.640626c8.792968 0 15.949218-7.15625 15.949218-15.949219v-28.519531h108.890625c1.023438 5.253906 3.09375 10.132812 5.988281 14.414062l-46.972656 46.976563c-.496094-3.699219.671875-7.582031 3.507813-10.417969l-10.605469-10.609375c-8.839844 8.839844-10.359375 22.269531-4.5625 32.6875l-2.417969 2.417969-9.824219-9.824219-10.605468 10.605469 9.824218 9.824219-5.351562 5.351562-20.164062-20.164062c-3.011719-3.015625-7.019532-4.671875-11.277344-4.671875-4.261719 0-8.265625 1.65625-11.277344 4.671875l-19.550781 19.542969 10.609375 10.609374 19.542968-19.546874c.371094-.367188.972657-.371094 1.34375 0l20.164063 20.164062-3.5625 3.566406-6.816406-6.816406-10.609375 10.605469 6.816406 6.816406-6.039062 6.042969 10.605468 10.605468 6.042969-6.042968 6.816406 6.816406 10.605469-10.605469-6.816406-6.816406 3.566406-3.5625 20.164062 20.164063c.183594.183593.277344.410156.277344.671874 0 .257813-.09375.484376-.277344.667969l-19.546874 19.546875 10.605468 10.609375 19.546875-19.546875c3.011719-3.015625 4.671875-7.019531 4.671875-11.277344 0-4.261718-1.660156-8.265624-4.671875-11.277343l-20.164062-20.167969 5.351562-5.347656 9.824219 9.824218 10.605469-10.609374-9.824219-9.824219 2.417969-2.417969c10.484375 5.828125 23.894531 4.222656 32.679687-4.5625l-10.605468-10.609375c-2.835938 2.835937-6.714844 4.003906-10.410157 3.511719l46.96875-46.972656c4.28125 2.898437 9.164063 4.96875 14.414063 5.988281v108.890625h-28.515625c-8.796875 0-15.949219 7.15625-15.949219 15.949218v27.644532h15v-27.644532c0-.523437.425781-.949218.949219-.949218h28.519531v3.046875h-12.566406c-5.332032 0-9.667969 4.335937-9.667969 9.664062v15.882813h15v-10.546875h7.234375v10.542969h15v-10.542969h7.234375v10.546875h15v-15.882813c0-5.328125-4.335937-9.664062-9.667969-9.664062h-12.566406v-3.046875h28.519531c.523438 0 .949219.425781.949219.949218v27.644532h15v-27.644532c0-8.792968-7.15625-15.949218-15.949219-15.949218h-28.519531v-108.890625c5.253906-1.023438 10.132812-3.09375 14.414062-5.988281l49.988282 49.984374-6.121094 6.121094 10.609375 10.605469 6.117187-6.117187 2.832032 2.828124-6.121094 6.117188 10.609375 10.609375 6.117187-6.117187 2.980469 2.976562-20.164062 20.167969c-3.015625 3.011719-4.671875 7.015625-4.671875 11.277343 0 4.257813 1.65625 8.265626 4.667968 11.277344l19.546876 19.546875 10.605468-10.609375-19.542968-19.546875c-.1875-.183593-.277344-.410156-.277344-.667969 0-.261718.089844-.488281.277344-.671874l20.164062-20.164063 20.214844 20.210937 10.605468-10.605468-20.214843-20.214844 20.167969-20.164062c.367187-.371094.972656-.367188 1.339843 0l19.546875 19.546874 10.605469-10.609374-19.542969-19.542969c-3.015625-3.015625-7.019531-4.671875-11.28125-4.671875-4.257812 0-8.265625 1.65625-11.277344 4.671875l-20.164062 20.164062-2.980469-2.980469 6.125-6.121093-10.609375-10.609375-6.121094 6.125-2.832031-2.832032 6.125-6.121093-10.609375-10.605469-6.121094 6.121094-49.984374-49.984375c2.894531-4.28125 4.964843-9.164063 5.988281-14.417969h49.9375c-1.742188 4.511719-4.914063 7.304688-7.859375 7.304688v15c11.457031 0 20.816406-9.335938 23.449218-22.304688h.578126v17.800781h15v-17.800781h.578124c2.632813 12.96875 11.996094 22.300781 23.453126 22.300781v-15c-2.949219 0-6.121094-2.789062-7.863282-7.300781h11.617188v28.519531c0 8.792969 7.152344 15.949219 15.949218 15.949219h27.640626v-15h-27.640626c-.523437 0-.949218-.425781-.949218-.949219v-28.519531h28.585937v-15h-28.585937v-28.519531c0-.523438.425781-.949219.949218-.949219h27.640626v-15h-27.640626c-8.796874 0-15.949218 7.15625-15.949218 15.949219v28.519531h-11.621094c1.742188-4.515625 4.917969-7.308594 7.867188-7.308594v-15c-11.460938 0-20.820313 9.335938-23.453126 22.308594h-.578124v-17.804688h-15v17.804688h-.574219c-2.632813-12.96875-11.996094-22.308594-23.453125-22.308594v15c2.945312 0 6.125 2.792969 7.863281 7.308594h-49.941406c-1.023438-5.253906-3.09375-10.132812-5.988281-14.414062l38.859374-38.863282c1.382813 5.078125.082032 10.738282-3.894531 14.71875l10.605469 10.605469c9.925781-9.925781 11.46875-25.105469 4.636719-36.667969l2.421875-2.421875c10.84375 7.378907 25.453125 8.875 34.601562-.269531l-10.609375-10.605469c-2.496093 2.496094-7.726562 2.667969-13.070312-.046875l13.457031-13.460937 20.167969 20.167969c3.011719 3.011718 7.015625 4.671874 11.277343 4.671874 4.257813 0 8.265626-1.660156 11.277344-4.671874l19.546875-19.546876-10.609375-10.605468-19.546875 19.546875c-.367187.367187-.96875.371093-1.339843 0l-20.164063-20.167969 20.210937-20.210938-10.605468-10.609374-20.214844 20.214843-20.164062-20.167969c-.1875-.183593-.277344-.410156-.277344-.667968 0-.261719.09375-.488282.277344-.671875l19.546874-19.546875-10.609374-10.609375-19.542969 19.546875c-3.015625 3.011718-4.671875 7.019531-4.671875 11.277344 0 4.261718 1.65625 8.265624 4.671875 11.277343l20.164062 20.164063-13.457031 13.460937c-2.71875-5.347656-2.550781-10.582031-.054688-13.078125l-10.605468-10.605468c-8.589844 8.59375-8.382813 22.800781-.277344 34.617187l-2.398438 2.402344c-4.601562-2.734375-9.867187-4.191407-15.359374-4.191407-8.054688 0-15.625 3.136719-21.320313 8.832032l10.605469 10.605468c3.972656-3.972656 9.613281-5.300781 14.730468-3.902343l-38.871093 38.871093c-4.28125-2.898437-9.164063-4.96875-14.417969-5.988281v-68.6875h8.652344v-15h-8.652344v-5.003906h8.652344v-15h-8.652344v-5.199219h28.519531c8.792969 0 15.949219-7.15625 15.949219-15.949218v-27.640626h-15v27.640626c0 .523437-.425781.949218-.949219.949218h-28.519531v-28.585937h-15v28.585937h-28.519531c-.523438 0-.949219-.425781-.949219-.949218v-27.640626h-15v27.640626c0 8.792968 7.15625 15.949218 15.949219 15.949218h28.519531v5.199219h-8.660156v15h8.660156v5.003906h-8.660156v15h8.660156v68.6875c-5.253906 1.023438-10.132812 3.09375-14.414062 5.988281l-57.9375-57.9375c3.761718-.53125 7.71875.648438 10.605468 3.53125l10.601563-10.605468c-8.882813-8.886719-22.382813-10.40625-32.851563-4.570313l-7.429687-7.425781 20.164062-20.167969c3.015625-3.011719 4.671875-7.015625 4.671875-11.277343 0-4.257813-1.65625-8.265626-4.671875-11.277344l-19.542969-19.546875-10.609374 10.609375 19.546874 19.542968c.183594.1875.277344.410157.277344.671876 0 .261718-.09375.484374-.277344.671874l-20.164062 20.164063-2.722656-2.722656c1.949218-3.632813 3.058594-7.785157 3.058594-12.191407 0-14.257812-11.597657-25.855468-25.855469-25.855468-14.253907 0-25.851563 11.597656-25.851563 25.855468 0 14.253907 11.597656 25.855469 25.851563 25.855469 4.40625 0 8.554687-1.109375 12.1875-3.058593l2.722656 2.726562-20.164063 20.164062c-.371093.371094-.972656.367188-1.339843 0l-19.546875-19.546874-10.609375 10.609374 19.546875 19.542969c3.011718 3.015625 7.019531 4.671875 11.277344 4.671875 4.261718 0 8.265624-1.65625 11.277343-4.671875l20.164063-20.164062 7.429687 7.429687c-5.835937 10.464844-4.316406 23.96875 4.570313 32.851563l10.605468-10.605469c-2.882812-2.886719-4.0625-6.84375-3.53125-10.601562l57.9375 57.9375c-2.898437 4.28125-4.96875 9.160156-5.988281 14.414062h-108.890625v-28.519531c0-8.792969-7.15625-15.949219-15.949218-15.949219h-27.640626v15h27.640626c.523437 0 .949218.425781.949218.949219v6.285156h-28.589844v15h28.589844v7.234375h-28.585937v15h28.585937v7.230469h-28.589844v15h28.589844v6.285156c0 .527344-.425781.953125-.949218.953125zm28.300781-161.167969c-5.984375 0-10.855469-4.871093-10.855469-10.855469 0-5.984374 4.871094-10.855468 10.855469-10.855468s10.855469 4.871094 10.855469 10.855468c0 5.984376-4.871094 10.855469-10.855469 10.855469zm135.050781 99.96875c13.359375 0 24.230469 10.871094 24.230469 24.230469s-10.871094 24.230469-24.230469 24.230469-24.230469-10.871094-24.230469-24.230469 10.871094-24.230469 24.230469-24.230469zm0 0"/>
</svg>
