<?xml version="1.0"?>
<svg xmlns="http://www.w3.org/2000/svg" viewBox="0 0 171 126" fill="#FFF">
	<g transform="translate(0,126) scale(0.1,-0.1)">
		<path d="M330 630 l0 -620 525 0 525 0 0 620 0 620 -525 0 -525 0 0 -620z m970 0 l0 -530 -445 0 -445 0 0 530 0 530 445 0 445 0 0 -530z"/>
		<path d="M10 630 l0 -510 140 0 140 0 0 40 0 40 -100 0 -100 0 0 430 0 430 100 0 100 0 0 40 0 40 -140 0 -140 0 0 -510z"/>
		<path d="M1420 1100 l0 -40 100 0 100 0 0 -430 0 -430 -100 0 -100 0 0 -40 0 -40 140 0 140 0 0 510 0 510 -140 0 -140 0 0 -40z"/>
	</g>
</svg>