<?xml version="1.0" encoding="UTF-8" standalone="no"?>
<!-- Generator: Adobe Illustrator 19.0.0, SVG Export Plug-In . SVG Version: 6.00 Build 0)  -->

<svg
   xmlns:dc="http://purl.org/dc/elements/1.1/"
   xmlns:cc="http://creativecommons.org/ns#"
   xmlns:rdf="http://www.w3.org/1999/02/22-rdf-syntax-ns#"
   xmlns:svg="http://www.w3.org/2000/svg"
   xmlns="http://www.w3.org/2000/svg"
   xmlns:sodipodi="http://sodipodi.sourceforge.net/DTD/sodipodi-0.dtd"
   xmlns:inkscape="http://www.inkscape.org/namespaces/inkscape"
   version="1.1"
   id="Layer_1"
   x="0px"
   y="0px"
   viewBox="0 0 476.69 512"
   xml:space="preserve"
   sodipodi:docname="maps-and-flags.svg"
   width="476.69"
   height="512"
   inkscape:version="0.92.4 (5da689c313, 2019-01-14)"><metadata
   id="metadata61"><rdf:RDF><cc:Work
       rdf:about=""><dc:format>image/svg+xml</dc:format><dc:type
         rdf:resource="http://purl.org/dc/dcmitype/StillImage" /><dc:title></dc:title></cc:Work></rdf:RDF></metadata><defs
   id="defs59" /><sodipodi:namedview
   pagecolor="#ffffff"
   bordercolor="#666666"
   borderopacity="1"
   objecttolerance="10"
   gridtolerance="10"
   guidetolerance="10"
   inkscape:pageopacity="0"
   inkscape:pageshadow="2"
   inkscape:window-width="640"
   inkscape:window-height="480"
   id="namedview57"
   showgrid="false"
   fit-margin-top="0"
   fit-margin-left="0"
   fit-margin-right="0"
   fit-margin-bottom="0"
   inkscape:zoom="0.4609375"
   inkscape:cx="238.345"
   inkscape:cy="256"
   inkscape:window-x="0"
   inkscape:window-y="0"
   inkscape:window-maximized="0"
   inkscape:current-layer="Layer_1" />
<path
   style="fill:#00d2ff"
   d="M 220.69,512 C 99.004,512 0,412.996 0,291.31 0,169.624 99.004,70.62 220.69,70.62 c 121.686,0 220.69,99.004 220.69,220.69 0,121.686 -99.004,220.69 -220.69,220.69 z"
   id="path2"
   inkscape:connector-curvature="0" />
<path
   style="fill:#18bdf6"
   d="m 323.678,438.436 c -121.686,0 -220.69,-99.004 -220.69,-220.69 0,-50.937 17.515,-97.768 46.613,-135.158 C 62.731,112.268 0,194.517 0,291.31 0,412.996 99.004,512 220.69,512 c 70.749,0 133.663,-33.598 174.077,-85.532 -22.342,7.633 -46.195,11.968 -71.089,11.968 z"
   id="path4"
   inkscape:connector-curvature="0" />
<path
   style="fill:#eff2fa"
   d="m 339.57,168.705 h 64.515 c -3.784,-5.641 -7.832,-11.09 -12.107,-16.348 H 333.162 C 320.163,121.823 302.987,96.815 283.104,79.666 263.299,73.813 242.366,70.62 220.69,70.62 c -21.676,0 -42.61,3.194 -62.415,9.046 -19.882,17.15 -37.057,42.157 -50.057,72.691 H 49.402 c -4.274,5.258 -8.323,10.706 -12.107,16.348 H 101.81 C 89.855,202.312 82.694,241.378 81.859,283.137 H 0.208 c -0.099,2.718 -0.207,5.431 -0.207,8.173 0,2.742 0.108,5.455 0.207,8.173 h 81.651 c 0.835,41.759 7.996,80.825 19.951,114.432 H 37.295 c 3.784,5.641 7.833,11.09 12.107,16.348 h 58.817 c 13,30.535 30.175,55.542 50.057,72.691 19.805,5.852 40.739,9.046 62.414,9.046 21.675,0 42.61,-3.193 62.414,-9.046 19.883,-17.15 37.058,-42.156 50.058,-72.691 h 58.816 c 4.275,-5.258 8.323,-10.706 12.107,-16.348 H 339.57 c 11.955,-33.607 19.116,-72.673 19.951,-114.432 h 81.651 c 0.099,-2.718 0.207,-5.432 0.207,-8.173 0,-2.741 -0.108,-5.455 -0.207,-8.173 h -81.651 c -0.835,-41.759 -7.996,-80.825 -19.951,-114.432 z m -127.053,342.75 c -35.044,-4.177 -66.102,-34.935 -86.988,-81.192 h 86.988 z m 0,-97.539 H 118.803 C 106.518,380.946 99.06,341.709 98.201,299.484 h 114.316 z m 0,-130.779 H 98.199 c 0.86,-42.225 8.318,-81.461 20.602,-114.432 h 93.714 v 114.432 z m 0,-130.779 h -86.988 c 20.886,-46.257 51.945,-77.015 86.988,-81.192 z m 16.346,-81.192 c 35.044,4.177 66.102,34.936 86.989,81.192 h -86.989 z m 0,440.289 v -81.192 h 86.989 c -20.886,46.257 -51.945,77.015 -86.989,81.192 z m 93.715,-97.539 H 228.864 V 299.484 H 343.18 c -0.859,42.224 -8.317,81.462 -20.602,114.432 z M 228.863,283.137 V 168.705 h 93.714 c 12.285,32.97 19.743,72.207 20.601,114.432 z"
   id="path6"
   inkscape:connector-curvature="0" />
<g
   id="g12"
   transform="translate(-17.655)">
	<path
   style="fill:#e4eaf6"
   d="m 257.395,511.086 c 3.652,-0.318 7.286,-0.703 10.886,-1.197 1.405,-0.192 2.802,-0.406 4.196,-0.625 3.703,-0.584 7.377,-1.258 11.017,-2.024 1.133,-0.237 2.274,-0.457 3.401,-0.713 4.317,-0.978 8.588,-2.078 12.808,-3.302 0.356,-0.104 0.722,-0.186 1.078,-0.292 18.115,-15.631 33.941,-37.838 46.447,-64.751 -1.974,0.055 -3.91,0.255 -5.896,0.255 -3.88,0 -7.734,-0.106 -11.565,-0.306 -20.767,41.85 -50.236,69.388 -83.25,73.324 v -81.192 h 35.463 c -18.341,-5.131 -35.719,-12.564 -51.81,-21.988 v 5.641 h -93.714 c -12.285,-32.97 -19.743,-72.207 -20.602,-114.432 h 20.547 c -2.145,-5.358 -4.139,-10.793 -5.866,-16.348 h -14.681 c 0.386,-18.969 2.169,-37.287 5.058,-54.752 -0.168,-3.527 -0.27,-7.069 -0.27,-10.637 0,-39.328 10.528,-76.149 28.68,-108.126 -8.799,12.55 -16.698,26.878 -23.449,42.737 h -58.55 c -1.451,1.778 -2.871,3.581 -4.267,5.404 -1.747,2.283 -3.474,4.578 -5.131,6.93 -0.929,1.316 -1.8,2.677 -2.701,4.014 h 64.244 c -11.955,33.607 -19.116,72.673 -19.951,114.432 H 17.985 c -0.1,2.727 -0.33,5.42 -0.33,8.172 0,2.742 0.108,5.455 0.207,8.173 h 81.651 c 0.835,41.759 7.996,80.825 19.951,114.432 H 54.95 l 10e-4,0.002 c 3.784,5.641 7.832,11.087 12.106,16.345 v 0 h 58.817 c 13,30.535 30.175,55.542 50.057,72.691 4.858,1.436 9.789,2.702 14.777,3.809 0.147,0.032 0.291,0.07 0.438,0.102 4.985,1.097 10.034,2.026 15.137,2.777 0.213,0.032 0.428,0.052 0.641,0.082 4.454,0.644 8.961,1.113 13.496,1.484 1.118,0.089 2.234,0.182 3.356,0.256 4.821,0.322 9.67,0.536 14.569,0.536 5.024,0 9.998,-0.212 14.938,-0.547 1.379,-0.093 2.74,-0.248 4.112,-0.366 z m -27.223,0.369 C 195.128,507.278 164.07,476.52 143.184,430.263 h 86.988 z"
   id="path8"
   inkscape:connector-curvature="0" />
	<path
   style="fill:#e4eaf6"
   d="m 412.422,426.467 c -4.163,1.422 -8.433,2.609 -12.698,3.796 h 9.575 c 1.033,-1.271 2.116,-2.5 3.123,-3.796 z"
   id="path10"
   inkscape:connector-curvature="0" />
</g>
<path
   style="fill:#ff6464"
   d="M 61.793,0 C 27.666,0 0,27.666 0,61.793 c 0,52.966 61.793,97.103 61.793,97.103 0,0 61.793,-44.138 61.793,-97.103 C 123.586,27.666 95.921,0 61.793,0 Z m 0,97.103 c -19.501,0 -35.31,-15.809 -35.31,-35.31 0,-19.502 15.809,-35.31 35.31,-35.31 19.501,0 35.31,15.808 35.31,35.31 0.001,19.501 -15.808,35.31 -35.31,35.31 z"
   id="path14"
   inkscape:connector-curvature="0" />
<path
   style="fill:#d2555a"
   d="m 26.483,61.793 c 0,-10.177 4.366,-19.277 11.253,-25.72 C 41.921,14.802 51.105,0 61.793,0 27.666,0 0,27.666 0,61.793 c 0,52.966 61.793,97.103 61.793,97.103 0,0 -18.4,-30.785 -24.501,-71.75 C 30.648,80.726 26.483,71.761 26.483,61.793 Z"
   id="path16"
   inkscape:connector-curvature="0" />
<path
   style="fill:#ff6464"
   d="m 414.897,176.552 c -34.127,0 -61.793,27.666 -61.793,61.793 0,52.965 61.793,97.103 61.793,97.103 0,0 61.793,-44.138 61.793,-97.103 0,-34.128 -27.666,-61.793 -61.793,-61.793 z m 0,97.103 c -19.501,0 -35.31,-15.809 -35.31,-35.31 0,-19.502 15.809,-35.31 35.31,-35.31 19.501,0 35.31,15.808 35.31,35.31 0,19.501 -15.809,35.31 -35.31,35.31 z"
   id="path18"
   inkscape:connector-curvature="0" />
<path
   style="fill:#d2555a"
   d="m 379.586,238.345 c 0,-10.177 4.366,-19.277 11.253,-25.72 4.185,-21.271 13.369,-36.073 24.057,-36.073 -34.127,0 -61.793,27.666 -61.793,61.793 0,52.965 61.793,97.103 61.793,97.103 0,0 -18.4,-30.785 -24.501,-71.75 -6.643,-6.42 -10.809,-15.386 -10.809,-25.353 z"
   id="path20"
   inkscape:connector-curvature="0" />
<path
   style="fill:#ff6464"
   d="m 176.552,282.483 c -34.127,0 -61.793,27.666 -61.793,61.793 0,52.966 61.793,97.103 61.793,97.103 0,0 61.793,-44.138 61.793,-97.103 0,-34.128 -27.666,-61.793 -61.793,-61.793 z m 0,97.103 c -19.501,0 -35.31,-15.809 -35.31,-35.31 0,-19.502 15.809,-35.31 35.31,-35.31 19.501,0 35.31,15.808 35.31,35.31 0,19.501 -15.809,35.31 -35.31,35.31 z"
   id="path22"
   inkscape:connector-curvature="0" />
<path
   style="fill:#d2555a"
   d="m 141.242,344.276 c 0,-10.177 4.366,-19.277 11.253,-25.72 4.185,-21.271 13.369,-36.073 24.057,-36.073 -34.127,0 -61.793,27.666 -61.793,61.793 0,52.966 61.793,97.103 61.793,97.103 0,0 -18.4,-30.785 -24.501,-71.75 -6.644,-6.42 -10.809,-15.386 -10.809,-25.353 z"
   id="path24"
   inkscape:connector-curvature="0" />
<g
   id="g26"
   transform="translate(-17.655)">
</g>
<g
   id="g28"
   transform="translate(-17.655)">
</g>
<g
   id="g30"
   transform="translate(-17.655)">
</g>
<g
   id="g32"
   transform="translate(-17.655)">
</g>
<g
   id="g34"
   transform="translate(-17.655)">
</g>
<g
   id="g36"
   transform="translate(-17.655)">
</g>
<g
   id="g38"
   transform="translate(-17.655)">
</g>
<g
   id="g40"
   transform="translate(-17.655)">
</g>
<g
   id="g42"
   transform="translate(-17.655)">
</g>
<g
   id="g44"
   transform="translate(-17.655)">
</g>
<g
   id="g46"
   transform="translate(-17.655)">
</g>
<g
   id="g48"
   transform="translate(-17.655)">
</g>
<g
   id="g50"
   transform="translate(-17.655)">
</g>
<g
   id="g52"
   transform="translate(-17.655)">
</g>
<g
   id="g54"
   transform="translate(-17.655)">
</g>
</svg>