<?xml version="1.0" encoding="UTF-8" standalone="no"?>
<svg
   xmlns:dc="http://purl.org/dc/elements/1.1/"
   xmlns:cc="http://creativecommons.org/ns#"
   xmlns:rdf="http://www.w3.org/1999/02/22-rdf-syntax-ns#"
   xmlns:svg="http://www.w3.org/2000/svg"
   xmlns="http://www.w3.org/2000/svg"
   xmlns:sodipodi="http://sodipodi.sourceforge.net/DTD/sodipodi-0.dtd"
   xmlns:inkscape="http://www.inkscape.org/namespaces/inkscape"
   height="448pt"
   viewBox="0 -16 480 448"
   width="480pt"
   version="1.1"
   id="svg46"
   sodipodi:docname="website.svg"
   inkscape:version="0.92.4 (5da689c313, 2019-01-14)">
  <metadata
     id="metadata52">
    <rdf:RDF>
      <cc:Work
         rdf:about="">
        <dc:format>image/svg+xml</dc:format>
        <dc:type
           rdf:resource="http://purl.org/dc/dcmitype/StillImage" />
        <dc:title></dc:title>
      </cc:Work>
    </rdf:RDF>
  </metadata>
  <defs
     id="defs50" />
  <sodipodi:namedview
     pagecolor="#ffffff"
     bordercolor="#666666"
     borderopacity="1"
     objecttolerance="10"
     gridtolerance="10"
     guidetolerance="10"
     inkscape:pageopacity="0"
     inkscape:pageshadow="2"
     inkscape:window-width="640"
     inkscape:window-height="480"
     id="namedview48"
     showgrid="false"
     fit-margin-top="0"
     fit-margin-left="0"
     fit-margin-right="0"
     fit-margin-bottom="0"
     inkscape:zoom="0.36875"
     inkscape:cx="320"
     inkscape:cy="298.66667"
     inkscape:window-x="0"
     inkscape:window-y="0"
     inkscape:window-maximized="0"
     inkscape:current-layer="svg46" />
  <path
     d="m 424,56 v 352 c -0.0273,8.82422 -7.17578,15.97266 -16,16 H 24 C 15.175781,423.97266 8.027344,416.82422 8,408 V 56 Z m 0,0"
     id="path2"
     inkscape:connector-curvature="0"
     style="fill:#5aaae7" />
  <path
     d="M 456,160 H 248 c -8.82422,0.0273 -15.97266,7.17578 -16,16 v 144 c 0.0273,8.82422 7.17578,15.97266 16,16 h 48 v 48 l 48,-48 h 112 c 8.82422,-0.0273 15.97266,-7.17578 16,-16 V 176 c -0.0273,-8.82422 -7.17578,-15.97266 -16,-16 z m 0,0"
     id="path4"
     inkscape:connector-curvature="0"
     style="fill:#ffd422" />
  <path
     d="m 120,144 32,48 H 88 Z m 0,0"
     id="path6"
     inkscape:connector-curvature="0"
     style="fill:#bcbec0" />
  <path
     d="m 152,336 v 16 c 0,17.67187 -14.32813,32 -32,32 -17.67187,0 -32,-14.32813 -32,-32 v -16 z m 0,0"
     id="path8"
     inkscape:connector-curvature="0"
     style="fill:#e6e7e8" />
  <path
     d="m 152,312 v 24 H 88 v -24 z m 0,0"
     id="path10"
     inkscape:connector-curvature="0"
     style="fill:#ff9811" />
  <path
     d="m 120,192 h 32 v 120 h -32 z m 0,0"
     id="path12"
     inkscape:connector-curvature="0"
     style="fill:#00b39d" />
  <path
     d="m 88,192 h 32 V 312 H 88 Z m 0,0"
     id="path14"
     inkscape:connector-curvature="0"
     style="fill:#00ccb3" />
  <path
     d="M 424,8 V 56 H 8 V 8 C 8.027344,-0.824219 15.175781,-7.972656 24,-8 h 384 c 8.82422,0.027344 15.97266,7.175781 16,16 z m 0,0"
     id="path16"
     inkscape:connector-curvature="0"
     style="fill:#ff6243" />
  <path
     d="m 416,408 c 0,4.41797 -3.58203,8 -8,8 H 24 c -4.417969,0 -8,-3.58203 -8,-8 V 64 h 400 v 72 h 16 V 8 c 0,-13.253906 -10.74609,-24 -24,-24 H 24 C 10.746094,-16 0,-5.253906 0,8 v 400 c 0,13.25391 10.746094,24 24,24 h 384 c 13.25391,0 24,-10.74609 24,-24 V 360 H 416 Z M 24,0 h 384 c 4.41797,0 8,3.582031 8,8 V 48 H 16 V 8 c 0,-4.417969 3.582031,-8 8,-8 z m 0,0"
     id="path18"
     inkscape:connector-curvature="0" />
  <path
     d="M 48,16 H 64 V 32 H 48 Z m 0,0"
     id="path20"
     inkscape:connector-curvature="0" />
  <path
     d="M 80,16 H 96 V 32 H 80 Z m 0,0"
     id="path22"
     inkscape:connector-curvature="0" />
  <path
     d="m 112,16 h 16 v 16 h -16 z m 0,0"
     id="path24"
     inkscape:connector-curvature="0" />
  <path
     d="m 160,96 h 16 v 16 h -16 z m 0,0"
     id="path26"
     inkscape:connector-curvature="0" />
  <path
     d="m 192,96 h 16 v 16 h -16 z m 0,0"
     id="path28"
     inkscape:connector-curvature="0" />
  <path
     d="m 224,96 h 16 v 16 h -16 z m 0,0"
     id="path30"
     inkscape:connector-curvature="0" />
  <path
     d="m 256,96 h 16 v 16 h -16 z m 0,0"
     id="path32"
     inkscape:connector-curvature="0" />
  <path
     d="M 176,16 H 352 V 32 H 176 Z m 0,0"
     id="path34"
     inkscape:connector-curvature="0" />
  <path
     d="M 456,152 H 248 c -13.25391,0 -24,10.74609 -24,24 v 144 c 0,13.25391 10.74609,24 24,24 h 40 v 40 c 0,3.23437 1.94922,6.15234 4.9375,7.39062 2.98828,1.23829 6.42969,0.55079 8.71875,-1.73437 L 347.3125,344 H 456 c 13.25391,0 24,-10.74609 24,-24 V 176 c 0,-13.25391 -10.74609,-24 -24,-24 z m 8,168 c 0,4.41797 -3.58203,8 -8,8 H 344 c -2.12109,0 -4.15625,0.84375 -5.65625,2.34375 L 304,364.6875 V 336 c 0,-4.41797 -3.58203,-8 -8,-8 h -48 c -4.41797,0 -8,-3.58203 -8,-8 V 176 c 0,-4.41797 3.58203,-8 8,-8 h 208 c 4.41797,0 8,3.58203 8,8 z m 0,0"
     id="path36"
     inkscape:connector-curvature="0" />
  <path
     d="m 272,200 h 160 v 16 H 272 Z m 0,0"
     id="path38"
     inkscape:connector-curvature="0" />
  <path
     d="m 272,240 h 160 v 16 H 272 Z m 0,0"
     id="path40"
     inkscape:connector-curvature="0" />
  <path
     d="m 272,280 h 160 v 16 H 272 Z m 0,0"
     id="path42"
     inkscape:connector-curvature="0" />
  <path
     d="m 113.34375,139.55859 -32,48 C 80.46875,188.875 80.003906,190.42187 80,192 v 160 c 0,22.08984 17.910156,40 40,40 22.08984,0 40,-17.91016 40,-40 V 192 c -0.004,-1.57813 -0.46875,-3.125 -1.34375,-4.44141 l -32,-48 c -1.57031,-2.09765 -4.03516,-3.33203 -6.65625,-3.33203 -2.62109,0 -5.08594,1.23438 -6.65625,3.33203 z M 120,158.39844 137.05469,184 H 102.94531 Z M 96,304 V 200 h 16 v 88 h 16 v -88 h 16 v 104 z m 48,16 v 8 H 96 v -8 z m -24,56 c -13.25391,0 -24,-10.74609 -24,-24 v -8 h 48 v 8 c 0,13.25391 -10.74609,24 -24,24 z m 0,0"
     id="path44"
     inkscape:connector-curvature="0" />
</svg>
